<?xml version="1.0" encoding="UTF-8" standalone="no"?>
<!-- Created with Inkscape (http://www.inkscape.org/) -->

<svg
   width="142.13231mm"
   height="12.584327mm"
   viewBox="0 0 142.13231 12.584327"
   version="1.1"
   id="svg5"
   xmlns="http://www.w3.org/2000/svg"
   xmlns:svg="http://www.w3.org/2000/svg">
  <defs
     id="defs2">
    <rect
       x="409.97458"
       y="534.39001"
       width="197.64661"
       height="109.56511"
       id="rect1894" />
  </defs>
  <g
     id="layer1"
     transform="translate(-35.195708,-112.0781)">
    <rect
       style="fill:#ec1b44;fill-opacity:1;stroke:none;stroke-width:0.213533;stroke-opacity:1"
       id="rect11089"
       width="82.534081"
       height="12.584327"
       x="94.79393"
       y="112.0781"
       rx="3.5944438" />
    <g
       aria-label="Cecilia classless"
       id="text129"
       style="font-size:12.7px;font-family:'Padyakke Expanded One';-inkscape-font-specification:'Padyakke Expanded One';fill:#487a75;stroke:#000000;stroke-width:0.264583">
      <path
         d="m 39.8492,121.47035 q -0.9144,0 -1.7272,-0.2286 -0.8128,-0.2286 -1.4478,-0.6731 -0.6223,-0.4445 -0.9906,-1.0795 -0.3556,-0.6477 -0.3556,-1.4605 0,-0.8255 0.3683,-1.4605 0.381,-0.635 1.0287,-1.0795 0.6477,-0.4445 1.4732,-0.6731 0.8382,-0.2286 1.7653,-0.2286 1.4351,0 2.4892,0.5461 1.0668,0.5334 1.7399,1.4097 v -1.8161 h 0.3048 v 2.3876 l -0.1524,0.0254 q -0.8636,-1.2446 -1.9685,-1.7399 -1.1049,-0.508 -2.413,-0.508 -0.8763,0 -1.6637,0.2159 -0.7747,0.2032 -1.3716,0.6096 -0.5969,0.4064 -0.9398,0.9906 -0.3429,0.5842 -0.3429,1.3208 0,0.9779 0.5715,1.6891 0.5715,0.6985 1.524,1.0795 0.9525,0.3683 2.1082,0.3683 1.27,0 2.159,-0.3302 0.889,-0.3429 1.4478,-0.8382 0.5588,-0.4953 0.8128,-0.9652 l 0.2667,0.1651 q -0.3048,0.5207 -0.889,1.0541 -0.5715,0.5207 -1.5113,0.8763 -0.9271,0.3429 -2.286,0.3429 z"
         style="fill:#ff00ff;stroke:#ec1b44"
         id="path350" />
      <path
         d="m 50.377492,121.47035 q -1.0287,0 -1.8669,-0.2667 -0.8255,-0.2794 -1.3208,-0.8001 -0.4953,-0.5207 -0.4953,-1.2446 0,-0.5969 0.3429,-1.0541 0.3429,-0.4699 0.9271,-0.7874 0.5842,-0.3175 1.3081,-0.4699 0.7239,-0.1651 1.4859,-0.1651 1.435099,0 2.311399,0.381 0.889,0.381 0.889,1.0922 0,0.4953 -0.4064,0.8001 -0.3937,0.3048 -1.0795,0.4572 -0.673099,0.1397 -1.536699,0.1397 -1.016,0 -1.9685,-0.1778 -0.9525,-0.1778 -1.9304,-0.508 -0.0254,0.1397 -0.0254,0.2921 0,0.5969 0.4318,1.0541 0.4445,0.4445 1.2065,0.6985 0.762,0.2413 1.7272,0.254 1.1811,0.0127 2.044699,-0.254 0.8763,-0.2794 1.5748,-0.7112 l 0.1397,0.254 q -0.7239,0.4445 -1.6002,0.7366 -0.863599,0.2794 -2.158999,0.2794 z m 0.381,-4.4958 q -0.8128,0 -1.5748,0.2032 -0.762,0.1905 -1.3208,0.5588 -0.5461,0.3683 -0.7493,0.9017 1.8796,0.6096 3.8227,0.6096 0.762,0 1.371599,-0.1016 0.6223,-0.1016 0.9779,-0.3429 0.3556,-0.2413 0.3556,-0.6477 0,-0.5588 -0.7747,-0.8636 -0.7747,-0.3175 -2.108199,-0.3175 z"
         style="fill:#ff00ff;stroke:#ec1b44"
         id="path352" />
      <path
         d="m 59.851685,121.47035 q -0.9906,0 -1.8161,-0.2794 -0.8255,-0.2794 -1.3208,-0.8001 -0.4826,-0.5207 -0.4826,-1.2446 0,-0.6223 0.3175,-1.0922 0.3302,-0.4699 0.8763,-0.7747 0.5461,-0.3048 1.2192,-0.4572 0.6731,-0.1524 1.3589,-0.1397 1.0922,0 2.0066,0.3683 0.9271,0.3683 1.447799,0.9144 v -1.1684 h 0.2921 v 1.7272 l -0.0762,0.0127 q -0.4191,-0.5461 -1.028699,-0.889 -0.5969,-0.3429 -1.2827,-0.508 -0.6858,-0.1651 -1.3843,-0.1651 -0.635,0 -1.2446,0.1397 -0.6096,0.127 -1.1049,0.4064 -0.4953,0.2667 -0.7874,0.6731 -0.2921,0.4064 -0.2921,0.9525 0,0.5969 0.4318,1.0541 0.4445,0.4445 1.1938,0.6985 0.7493,0.254 1.6764,0.2667 1.1938,0.0127 2.1463,-0.3556 0.952499,-0.381 1.650999,-0.9271 l 0.1778,0.2286 q -0.7366,0.5969 -1.714499,0.9779 -0.9779,0.381 -2.2606,0.381 z"
         style="fill:#ff00ff;stroke:#ec1b44"
         id="path354" />
      <path
         d="m 65.680963,121.33065 v -0.2921 h 2.3114 v -3.9497 h -2.3114 v -0.2921 h 2.6289 v 4.2418 h 2.3241 v 0.2921 z m 2.3241,-5.9817 q -0.2794,0 -0.4445,-0.1016 -0.1524,-0.1143 -0.1524,-0.2794 0,-0.1651 0.1524,-0.2667 0.1651,-0.1143 0.4445,-0.1143 0.2921,0 0.4445,0.1143 0.1524,0.1016 0.1524,0.2667 0,0.1651 -0.1524,0.2794 -0.1524,0.1016 -0.4445,0.1016 z"
         style="fill:#ff00ff;stroke:#ec1b44"
         id="path356" />
      <path
         d="m 71.383262,121.33065 v -0.2921 h 2.2987 v -6.0071 h -2.2987 v -0.3048 h 2.6162 v 6.3119 h 2.3241 v 0.2921 z"
         style="fill:#ff00ff;stroke:#ec1b44"
         id="path358" />
      <path
         d="m 77.32686,121.33065 v -0.2921 h 2.3114 v -3.9497 h -2.3114 v -0.2921 h 2.6289 v 4.2418 h 2.3241 v 0.2921 z m 2.3241,-5.9817 q -0.2794,0 -0.4445,-0.1016 -0.1524,-0.1143 -0.1524,-0.2794 0,-0.1651 0.1524,-0.2667 0.1651,-0.1143 0.4445,-0.1143 0.2921,0 0.4445,0.1143 0.1524,0.1016 0.1524,0.2667 0,0.1651 -0.1524,0.2794 -0.1524,0.1016 -0.4445,0.1016 z"
         style="fill:#ff00ff;stroke:#ec1b44"
         id="path360" />
      <path
         d="m 86.293059,121.45765 q -1.1938,0 -1.8542,-0.3429 -0.6477,-0.3556 -0.6477,-0.9779 0,-0.7112 0.8001,-1.0795 0.8128,-0.381 2.2225,-0.381 1.1049,0 2.0193,0.127 0.9271,0.127 1.7145,0.2794 v -0.254 q 0,-0.8001 -0.635,-1.3208 -0.6223,-0.5334 -1.9939,-0.5334 -0.9906,0 -1.9304,0.2159 -0.9398,0.2032 -1.9304,0.508 l -0.0762,-0.3048 q 1.0414,-0.3429 2.0066,-0.5334 0.9779,-0.1905 1.9304,-0.1905 1.4986,0 2.2225,0.6096 0.7239,0.5969 0.7239,1.5494 v 1.3208 q 0,0.508 0.2413,0.762 0.254,0.2413 0.5715,0.2413 0.508,0 0.8636,-0.3048 l 0.1651,0.2413 q -0.2159,0.1651 -0.4826,0.2667 -0.2667,0.1016 -0.5588,0.1016 -0.4318,0 -0.7366,-0.2667 -0.2921,-0.2667 -0.3556,-0.762 -1.016,0.508 -2.1463,0.7747 -1.1176,0.254 -2.1336,0.254 z m -2.1844,-1.3462 q 0,0.508 0.5715,0.7747 0.5715,0.2667 1.6129,0.2667 0.9906,0 2.0828,-0.254 1.1049,-0.2667 2.1717,-0.7493 v -0.7874 q -0.7874,-0.1651 -1.7399,-0.2794 -0.9525,-0.1143 -1.9939,-0.1143 -1.2573,0 -1.9812,0.3048 -0.7239,0.3048 -0.7239,0.8382 z"
         style="fill:#ff00ff;stroke:#ec1b44"
         id="path362" />
      <path
         d="m 100.96153,121.47035 q -0.990599,0 -1.816099,-0.2794 -0.8255,-0.2794 -1.3208,-0.8001 -0.4826,-0.5207 -0.4826,-1.2446 0,-0.6223 0.3175,-1.0922 0.3302,-0.4699 0.8763,-0.7747 0.5461,-0.3048 1.2192,-0.4572 0.673099,-0.1524 1.358899,-0.1397 1.0922,0 2.0066,0.3683 0.9271,0.3683 1.4478,0.9144 v -1.1684 h 0.2921 v 1.7272 l -0.0762,0.0127 q -0.4191,-0.5461 -1.0287,-0.889 -0.5969,-0.3429 -1.2827,-0.508 -0.6858,-0.1651 -1.3843,-0.1651 -0.635,0 -1.244599,0.1397 -0.6096,0.127 -1.1049,0.4064 -0.4953,0.2667 -0.7874,0.6731 -0.2921,0.4064 -0.2921,0.9525 0,0.5969 0.4318,1.0541 0.4445,0.4445 1.1938,0.6985 0.749299,0.254 1.676399,0.2667 1.1938,0.0127 2.1463,-0.3556 0.9525,-0.381 1.651,-0.9271 l 0.1778,0.2286 q -0.7366,0.5969 -1.7145,0.9779 -0.9779,0.381 -2.2606,0.381 z"
         style="stroke:#ffffff"
         id="path364" />
      <path
         d="m 106.5368,121.33065 v -0.2921 h 2.2987 v -6.0071 h -2.2987 v -0.3048 h 2.6162 v 6.3119 h 2.3241 v 0.2921 z"
         style="stroke:#ffffff"
         id="path366" />
      <path
         d="m 115.49031,121.45765 q -1.1938,0 -1.8542,-0.3429 -0.6477,-0.3556 -0.6477,-0.9779 0,-0.7112 0.8001,-1.0795 0.8128,-0.381 2.2225,-0.381 1.1049,0 2.0193,0.127 0.9271,0.127 1.7145,0.2794 v -0.254 q 0,-0.8001 -0.635,-1.3208 -0.6223,-0.5334 -1.9939,-0.5334 -0.9906,0 -1.9304,0.2159 -0.9398,0.2032 -1.9304,0.508 l -0.0762,-0.3048 q 1.0414,-0.3429 2.0066,-0.5334 0.9779,-0.1905 1.9304,-0.1905 1.4986,0 2.2225,0.6096 0.7239,0.5969 0.7239,1.5494 v 1.3208 q 0,0.508 0.2413,0.762 0.254,0.2413 0.5715,0.2413 0.508,0 0.8636,-0.3048 l 0.1651,0.2413 q -0.2159,0.1651 -0.4826,0.2667 -0.2667,0.1016 -0.5588,0.1016 -0.4318,0 -0.7366,-0.2667 -0.2921,-0.2667 -0.3556,-0.762 -1.016,0.508 -2.1463,0.7747 -1.1176,0.254 -2.1336,0.254 z m -2.1844,-1.3462 q 0,0.508 0.5715,0.7747 0.5715,0.2667 1.6129,0.2667 0.9906,0 2.0828,-0.254 1.1049,-0.2667 2.1717,-0.7493 v -0.7874 q -0.7874,-0.1651 -1.7399,-0.2794 -0.9525,-0.1143 -1.9939,-0.1143 -1.2573,0 -1.9812,0.3048 -0.7239,0.3048 -0.7239,0.8382 z"
         style="stroke:#ffffff"
         id="path368" />
      <path
         d="m 127.26319,121.45765 q -1.1938,0 -2.1844,-0.3556 -0.9779,-0.3556 -1.5113,-0.8763 v 1.1049 h -0.2921 v -1.7272 q 0.4445,0.5461 1.0922,0.9017 0.6477,0.3429 1.4097,0.508 0.7747,0.1651 1.5494,0.1651 0.6604,0 1.2446,-0.0762 0.5842,-0.0762 0.9398,-0.2794 0.3683,-0.2032 0.3683,-0.5715 0,-0.3302 -0.3175,-0.5207 -0.3048,-0.1905 -1.0033,-0.3048 -0.6985,-0.1143 -1.8669,-0.1778 -1.7526,-0.1016 -2.54,-0.4064 -0.7874,-0.3175 -0.7874,-0.9017 0,-0.5715 0.6604,-0.9144 0.6604,-0.3556 2.0955,-0.3556 1.1811,0 2.1082,0.3683 0.9271,0.3556 1.4478,0.889 v -1.1303 h 0.2921 v 1.7399 q -0.6858,-0.8255 -1.7018,-1.2065 -1.0033,-0.381 -2.1971,-0.381 -1.1176,0 -1.7653,0.254 -0.635,0.2413 -0.635,0.7239 0,0.4318 0.6858,0.6731 0.6858,0.2286 2.3368,0.3302 1.8034,0.1143 2.6416,0.3683 0.8509,0.254 0.8509,0.9398 0,0.635 -0.7874,0.9271 -0.7747,0.2921 -2.1336,0.2921 z"
         style="stroke:#ffffff"
         id="path370" />
      <path
         d="m 136.71198,121.45765 q -1.1938,0 -2.1844,-0.3556 -0.9779,-0.3556 -1.5113,-0.8763 v 1.1049 h -0.2921 v -1.7272 q 0.4445,0.5461 1.0922,0.9017 0.6477,0.3429 1.4097,0.508 0.7747,0.1651 1.5494,0.1651 0.6604,0 1.2446,-0.0762 0.5842,-0.0762 0.9398,-0.2794 0.3683,-0.2032 0.3683,-0.5715 0,-0.3302 -0.3175,-0.5207 -0.3048,-0.1905 -1.0033,-0.3048 -0.6985,-0.1143 -1.8669,-0.1778 -1.7526,-0.1016 -2.54,-0.4064 -0.7874,-0.3175 -0.7874,-0.9017 0,-0.5715 0.6604,-0.9144 0.6604,-0.3556 2.0955,-0.3556 1.1811,0 2.1082,0.3683 0.9271,0.3556 1.4478,0.889 v -1.1303 h 0.2921 v 1.7399 q -0.6858,-0.8255 -1.7018,-1.2065 -1.0033,-0.381 -2.1971,-0.381 -1.1176,0 -1.7653,0.254 -0.635,0.2413 -0.635,0.7239 0,0.4318 0.6858,0.6731 0.6858,0.2286 2.3368,0.3302 1.8034,0.1143 2.6416,0.3683 0.8509,0.254 0.8509,0.9398 0,0.635 -0.7874,0.9271 -0.7747,0.2921 -2.1336,0.2921 z"
         style="stroke:#ffffff"
         id="path372" />
      <path
         d="m 141.34747,121.33065 v -0.2921 h 2.2987 v -6.0071 h -2.2987 v -0.3048 h 2.6162 v 6.3119 h 2.3241 v 0.2921 z"
         style="stroke:#ffffff"
         id="path374" />
      <path
         d="m 151.35507,121.47035 q -1.0287,0 -1.8669,-0.2667 -0.8255,-0.2794 -1.3208,-0.8001 -0.4953,-0.5207 -0.4953,-1.2446 0,-0.5969 0.3429,-1.0541 0.3429,-0.4699 0.9271,-0.7874 0.5842,-0.3175 1.3081,-0.4699 0.7239,-0.1651 1.4859,-0.1651 1.4351,0 2.3114,0.381 0.889,0.381 0.889,1.0922 0,0.4953 -0.4064,0.8001 -0.3937,0.3048 -1.0795,0.4572 -0.6731,0.1397 -1.5367,0.1397 -1.016,0 -1.9685,-0.1778 -0.9525,-0.1778 -1.9304,-0.508 -0.0254,0.1397 -0.0254,0.2921 0,0.5969 0.4318,1.0541 0.4445,0.4445 1.2065,0.6985 0.762,0.2413 1.7272,0.254 1.1811,0.0127 2.0447,-0.254 0.8763,-0.2794 1.5748,-0.7112 l 0.1397,0.254 q -0.7239,0.4445 -1.6002,0.7366 -0.8636,0.2794 -2.159,0.2794 z m 0.381,-4.4958 q -0.8128,0 -1.5748,0.2032 -0.762,0.1905 -1.3208,0.5588 -0.5461,0.3683 -0.7493,0.9017 1.8796,0.6096 3.8227,0.6096 0.762,0 1.3716,-0.1016 0.6223,-0.1016 0.9779,-0.3429 0.3556,-0.2413 0.3556,-0.6477 0,-0.5588 -0.7747,-0.8636 -0.7747,-0.3175 -2.1082,-0.3175 z"
         style="stroke:#ffffff"
         id="path376" />
      <path
         d="m 161.38807,121.45765 q -1.1938,0 -2.1844,-0.3556 -0.9779,-0.3556 -1.5113,-0.8763 v 1.1049 h -0.2921 v -1.7272 q 0.4445,0.5461 1.0922,0.9017 0.6477,0.3429 1.4097,0.508 0.7747,0.1651 1.5494,0.1651 0.6604,0 1.2446,-0.0762 0.5842,-0.0762 0.9398,-0.2794 0.3683,-0.2032 0.3683,-0.5715 0,-0.3302 -0.3175,-0.5207 -0.3048,-0.1905 -1.0033,-0.3048 -0.6985,-0.1143 -1.8669,-0.1778 -1.7526,-0.1016 -2.54,-0.4064 -0.7874,-0.3175 -0.7874,-0.9017 0,-0.5715 0.6604,-0.9144 0.6604,-0.3556 2.0955,-0.3556 1.1811,0 2.1082,0.3683 0.9271,0.3556 1.4478,0.889 v -1.1303 h 0.2921 v 1.7399 q -0.6858,-0.8255 -1.7018,-1.2065 -1.0033,-0.381 -2.1971,-0.381 -1.1176,0 -1.7653,0.254 -0.635,0.2413 -0.635,0.7239 0,0.4318 0.6858,0.6731 0.6858,0.2286 2.3368,0.3302 1.8034,0.1143 2.6416,0.3683 0.8509,0.254 0.8509,0.9398 0,0.635 -0.7874,0.9271 -0.7747,0.2921 -2.1336,0.2921 z"
         style="stroke:#ffffff"
         id="path378" />
      <path
         d="m 170.83686,121.45765 q -1.1938,0 -2.1844,-0.3556 -0.9779,-0.3556 -1.5113,-0.8763 v 1.1049 h -0.2921 v -1.7272 q 0.4445,0.5461 1.0922,0.9017 0.6477,0.3429 1.4097,0.508 0.7747,0.1651 1.5494,0.1651 0.6604,0 1.2446,-0.0762 0.5842,-0.0762 0.9398,-0.2794 0.3683,-0.2032 0.3683,-0.5715 0,-0.3302 -0.3175,-0.5207 -0.3048,-0.1905 -1.0033,-0.3048 -0.6985,-0.1143 -1.8669,-0.1778 -1.7526,-0.1016 -2.54,-0.4064 -0.7874,-0.3175 -0.7874,-0.9017 0,-0.5715 0.6604,-0.9144 0.6604,-0.3556 2.0955,-0.3556 1.1811,0 2.1082,0.3683 0.9271,0.3556 1.4478,0.889 v -1.1303 h 0.2921 v 1.7399 q -0.6858,-0.8255 -1.7018,-1.2065 -1.0033,-0.381 -2.1971,-0.381 -1.1176,0 -1.7653,0.254 -0.635,0.2413 -0.635,0.7239 0,0.4318 0.6858,0.6731 0.6858,0.2286 2.3368,0.3302 1.8034,0.1143 2.6416,0.3683 0.8509,0.254 0.8509,0.9398 0,0.635 -0.7874,0.9271 -0.7747,0.2921 -2.1336,0.2921 z"
         style="stroke:#ffffff"
         id="path380" />
    </g>
  </g>
</svg>
